HIERARCHY
ROOT Hips
{
	OFFSET 0.000000 89.005402 0.000000
	CHANNELS 6 Xposition Yposition Zposition Xrotation Yrotation Zrotation
	JOINT Spine
	{
		OFFSET 0.116900 10.681000 0.373400
		CHANNELS 3 Xrotation Yrotation Zrotation
		JOINT Spine1
		{
			OFFSET 0.000000 13.840401 0.053500
			CHANNELS 3 Xrotation Yrotation Zrotation
			JOINT Spine2
			{
				OFFSET 0.000000 14.712700 -0.366200
				CHANNELS 3 Xrotation Yrotation Zrotation
				JOINT Neck
				{
					OFFSET 0.000000 35.415497 -3.314200
					CHANNELS 3 Xrotation Yrotation Zrotation
					JOINT Head
					{
						OFFSET 0.000000 16.899200 1.218300
						CHANNELS 3 Xrotation Yrotation Zrotation
						JOINT HeadTop_End
						{
							OFFSET 0.000000 22.206207 2.192500
							CHANNELS 3 Xrotation Yrotation Zrotation
							End Site
							{
								OFFSET 0.000000 22.314178 0.000000
							}
						}
					}
				}
				JOINT LeftShoulder
				{
					OFFSET 12.896400 26.716293 -4.548400
					CHANNELS 3 Xrotation Yrotation Zrotation
					JOINT LeftArm
					{
						OFFSET 19.027000 -4.857010 -1.718400
						CHANNELS 3 Xrotation Yrotation Zrotation
						JOINT LeftForeArm
						{
							OFFSET 24.179897 0.000000 0.000000
							CHANNELS 3 Xrotation Yrotation Zrotation
							JOINT LeftHand
							{
								OFFSET 27.156403 0.000000 0.000000
								CHANNELS 3 Xrotation Yrotation Zrotation
								JOINT LeftHandIndex1
								{
									OFFSET 16.441200 0.000000 0.000000
									CHANNELS 3 Xrotation Yrotation Zrotation
									JOINT LeftHandIndex2
									{
										OFFSET 4.821899 0.000000 0.000000
										CHANNELS 3 Xrotation Yrotation Zrotation
										JOINT LeftHandIndex3
										{
											OFFSET 6.386497 0.000000 0.000000
											CHANNELS 3 Xrotation Yrotation Zrotation
											JOINT LeftHandIndex4
											{
												OFFSET 5.188988 0.000000 0.000000
												CHANNELS 3 Xrotation Yrotation Zrotation
												End Site
												{
													OFFSET -0.178703 5.185913 0.000177
												}
											}
										}
									}
								}
								JOINT LeftHandThumb1
								{
									OFFSET 6.534897 -5.032593 5.900300
									CHANNELS 3 Xrotation Yrotation Zrotation
									JOINT LeftHandThumb2
									{
										OFFSET 3.818176 -2.204422 2.204423
										CHANNELS 3 Xrotation Yrotation Zrotation
										JOINT LeftHandThumb3
										{
											OFFSET 3.252098 -1.877594 1.877601
											CHANNELS 3 Xrotation Yrotation Zrotation
											JOINT LeftHandThumb4
											{
												OFFSET 5.251778 -3.032120 3.032117
												CHANNELS 3 Xrotation Yrotation Zrotation
												End Site
												{
													OFFSET 0.000023 6.780014 0.000000
												}
											}
										}
									}
								}
							}
						}
					}
				}
				JOINT RightShoulder
				{
					OFFSET -12.896300 26.716293 -4.548400
					CHANNELS 3 Xrotation Yrotation Zrotation
					JOINT RightArm
					{
						OFFSET -19.027000 -4.857010 -1.718400
						CHANNELS 3 Xrotation Yrotation Zrotation
						JOINT RightForeArm
						{
							OFFSET -24.179897 0.000000 0.000000
							CHANNELS 3 Xrotation Yrotation Zrotation
							JOINT RightHand
							{
								OFFSET -27.156403 0.000000 0.000000
								CHANNELS 3 Xrotation Yrotation Zrotation
								JOINT RightHandThumb1
								{
									OFFSET -6.591202 -4.852203 5.988100
									CHANNELS 3 Xrotation Yrotation Zrotation
									JOINT RightHandThumb2
									{
										OFFSET -3.818176 -2.204422 2.204423
										CHANNELS 3 Xrotation Yrotation Zrotation
										JOINT RightHandThumb3
										{
											OFFSET -3.252098 -1.877594 1.877601
											CHANNELS 3 Xrotation Yrotation Zrotation
											JOINT RightHandThumb4
											{
												OFFSET -5.251778 -3.032120 3.032117
												CHANNELS 3 Xrotation Yrotation Zrotation
												End Site
												{
													OFFSET -0.000023 6.780014 0.000000
												}
											}
										}
									}
								}
								JOINT RightHandIndex1
								{
									OFFSET -16.029404 0.000000 0.000000
									CHANNELS 3 Xrotation Yrotation Zrotation
									JOINT RightHandIndex2
									{
										OFFSET -5.213303 0.000000 0.000000
										CHANNELS 3 Xrotation Yrotation Zrotation
										JOINT RightHandIndex3
										{
											OFFSET -6.386528 0.000000 0.000000
											CHANNELS 3 Xrotation Yrotation Zrotation
											JOINT RightHandIndex4
											{
												OFFSET -5.189026 0.000000 0.000000
												CHANNELS 3 Xrotation Yrotation Zrotation
												End Site
												{
													OFFSET 0.236702 5.183624 0.001972
												}
											}
										}
									}
								}
							}
						}
					}
				}
			}
		}
	}
	JOINT LeftUpLeg
	{
		OFFSET 14.073000 -7.904099 -1.463000
		CHANNELS 3 Xrotation Yrotation Zrotation
		JOINT LeftLeg
		{
			OFFSET -0.109806 -34.073280 4.093200
			CHANNELS 3 Xrotation Yrotation Zrotation
			JOINT LeftFoot
			{
				OFFSET 0.109806 -29.899420 -6.319000
				CHANNELS 3 Xrotation Yrotation Zrotation
				JOINT LeftToeBase
				{
					OFFSET 1.551100 -14.988700 20.535801
					CHANNELS 3 Xrotation Yrotation Zrotation
					JOINT LeftToe_End
					{
						OFFSET 0.221200 0.570800 13.248301
						CHANNELS 3 Xrotation Yrotation Zrotation
						End Site
						{
							OFFSET 0.000000 13.262435 0.000000
						}
					}
				}
			}
		}
	}
	JOINT RightUpLeg
	{
		OFFSET -13.839300 -7.904099 -1.463000
		CHANNELS 3 Xrotation Yrotation Zrotation
		JOINT RightLeg
		{
			OFFSET 0.109694 -34.073219 4.093300
			CHANNELS 3 Xrotation Yrotation Zrotation
			JOINT RightFoot
			{
				OFFSET -0.109694 -29.899384 -6.319200
				CHANNELS 3 Xrotation Yrotation Zrotation
				JOINT RightToeBase
				{
					OFFSET -1.551100 -14.988700 20.535801
					CHANNELS 3 Xrotation Yrotation Zrotation
					JOINT RightToe_End
					{
						OFFSET -0.221200 0.570900 13.248299
						CHANNELS 3 Xrotation Yrotation Zrotation
						End Site
						{
							OFFSET 0.000000 13.262440 0.000000
						}
					}
				}
			}
		}
	}
}
MOTION
Frames: 9
Frame Time: 0.033333
-1.731692 71.626038 1.111832 11.687173 -49.461686 11.396020 10.978562 2.787491 -2.155429 6.100703 5.566546 -4.284697 -5.786913 6.328151 -3.046190 2.318143 9.363422 -0.265640 -4.146221 23.161776 -3.522874 -0.000000 -0.000000 0.000000 -1.890270 -16.306778 -2.896089 -10.638365 2.284236 -45.466322 -22.862388 -25.786264 -15.871638 2.491039 -2.511918 6.860423 -1.232771 -5.771930 -0.192352 0.133951 -0.197661 -4.602060 0.055739 -0.448189 -7.568222 -0.000001 0.000003 -0.000000 18.457960 -9.513810 13.216570 -1.150192 11.255291 -8.400847 5.706562 8.483096 -0.820733 -0.000000 0.000004 -0.000004 -5.075252 24.308578 1.485503 6.697763 -34.727482 57.633956 -21.021181 44.813998 19.946762 -0.101212 35.683623 7.500752 55.149543 18.649550 -29.698308 -0.442568 -14.180531 7.313153 21.666992 -29.244486 9.142364 0.000001 -0.000000 -0.000001 5.673415 7.585037 36.844202 1.050453 3.824473 68.900189 0.499589 3.026025 62.196440 0.000000 -0.000002 0.000002 -64.946117 26.591086 44.239173 46.271502 -21.279767 3.025073 2.031953 1.396334 -11.917773 -0.918899 -6.110461 0.929442 0.000000 -0.000001 0.000000 -29.521054 -0.236676 -29.199042 53.475685 5.069623 -6.102643 -30.610405 -5.338741 27.121290 0.528334 2.970031 1.471365 0.000000 -0.000001 0.000000 
-2.161802 71.449692 1.536028 8.424963 -47.798801 8.524526 11.064750 2.640931 -2.297320 6.291358 4.842283 -3.799478 -5.680985 5.465716 -2.854841 6.675225 8.070791 -0.570353 -4.951187 22.136448 -3.132639 -0.000001 0.000000 0.000000 -1.393677 -15.203537 -3.067976 -9.052894 0.651239 -44.851636 -21.080752 -27.138833 -15.387771 10.526713 -0.591133 6.931999 -1.330716 -5.126203 -0.688230 0.132695 -0.213191 -4.937779 0.053629 -0.463637 -7.903870 -0.000006 -0.000001 -0.000001 17.060272 -8.313006 13.433903 -1.749223 11.101683 -8.082551 5.706558 8.483096 -0.820731 -0.000001 -0.000001 0.000002 -5.026085 23.655631 1.422862 9.033310 -35.455037 57.771844 -21.569824 44.789088 20.036684 -1.025571 35.017874 7.995797 55.149543 18.649553 -29.698308 -0.442567 -14.180531 7.313152 21.666986 -29.244483 9.142365 0.000000 -0.000000 0.000001 5.673413 7.585037 36.844206 1.050451 3.824481 68.900189 0.499587 3.026023 62.196440 0.000002 -0.000001 -0.000000 -64.508657 26.564038 44.499956 47.512671 -23.526920 3.026068 1.721193 1.350727 -10.833421 -0.918899 -6.110462 0.929442 0.000000 -0.000002 -0.000000 -25.802414 -1.942901 -29.559587 53.406636 4.325897 -6.145093 -32.051335 -5.938884 27.647399 0.528334 2.970031 1.471365 0.000000 0.000001 0.000000 
-2.204299 71.494247 1.698181 7.117161 -45.041153 6.881656 10.812161 2.061795 -1.943737 5.822207 3.574926 -2.793125 -6.186188 3.999300 -2.161256 11.467295 5.815157 -2.212259 -3.571046 19.408773 -1.718253 -0.000000 -0.000000 0.000000 -0.255293 -11.303973 -5.854281 -5.139812 -4.364988 -42.453174 -17.651569 -34.917665 -14.013589 26.193485 1.497503 5.064234 -1.531479 -3.459171 -1.954800 0.128973 -0.253155 -5.801593 0.047761 -0.503370 -8.767761 -0.000000 -0.000002 0.000002 13.409269 -5.371889 14.200285 -3.290914 10.684882 -7.284100 5.706560 8.483097 -0.820737 -0.000000 -0.000001 0.000002 -5.018554 21.454708 1.773472 12.979179 -37.396303 57.416168 -22.845851 45.606280 20.674371 -2.132225 34.861589 9.794681 55.149543 18.649550 -29.698308 -0.442567 -14.180531 7.313151 21.666987 -29.244486 9.142364 -0.000000 0.000000 0.000001 5.673414 7.585034 36.844199 1.050452 3.824478 68.900196 0.499587 3.026019 62.196440 -0.000002 -0.000001 0.000002 -65.447535 26.359455 43.952319 47.243442 -22.808148 3.077432 2.871020 -1.911326 -9.708070 -0.918899 -6.110461 0.929442 0.000000 0.000001 -0.000000 -22.946727 -3.634084 -29.047661 52.595831 3.897268 -6.118150 -32.607040 -7.978580 27.667782 0.528334 2.970030 1.471365 0.000000 0.000002 0.000000 
-1.583739 71.834724 1.405409 12.978061 -41.064006 8.921899 9.734293 1.387892 -0.942938 3.668737 2.405355 -0.782566 -8.335874 2.445272 -0.399575 11.171113 2.617607 -3.257624 3.173764 15.130780 0.439266 0.000001 -0.000000 0.000000 1.466153 -7.834822 -7.815555 3.644242 -10.362538 -40.942626 -15.452154 -51.326303 -9.614253 34.797765 -5.118195 6.330274 -1.687744 -1.166801 -3.672169 0.122885 -0.307825 -6.985089 0.038797 -0.557643 -9.951269 0.000000 0.000002 -0.000004 8.256421 -1.735798 15.708646 -5.402298 10.065038 -6.240109 5.706559 8.483097 -0.820731 0.000001 -0.000000 0.000001 -4.961259 18.344041 2.180585 16.862632 -43.512297 57.039876 -23.728149 47.018093 21.563268 -2.874851 36.549811 12.373975 55.149539 18.649548 -29.698305 -0.442567 -14.180534 7.313150 21.666992 -29.244490 9.142364 -0.000000 0.000000 0.000002 5.673415 7.585038 36.844202 1.050451 3.824482 68.900189 0.499586 3.026025 62.196440 0.000003 -0.000001 -0.000001 -71.133681 24.799466 41.470368 44.763701 -22.958262 2.941724 6.304862 -2.967972 -8.558940 -0.918899 -6.110463 0.929442 -0.000000 0.000001 0.000000 -25.113692 -4.029127 -25.996059 50.344942 1.749097 -6.132201 -30.829995 -10.896227 28.105380 0.528334 2.970026 1.471365 -0.000000 0.000003 -0.000000 
-0.461264 72.229568 0.598175 23.516843 -36.289922 14.936258 9.176322 0.308059 -0.211843 2.558481 0.541479 0.352198 -9.399215 0.411830 0.390225 -1.993538 0.500133 1.020468 6.448161 13.642237 0.761721 -0.000001 0.000001 0.000000 2.902159 -7.648845 1.551452 7.304960 -15.919108 -49.871610 -15.997732 -67.809196 -3.448615 20.105106 -11.912457 2.064349 -1.702506 1.345252 -5.536043 0.114891 -0.367457 -8.279579 0.027735 -0.616817 -11.245809 -0.000001 -0.000002 0.000002 2.394988 1.638372 17.911867 -7.709316 9.325440 -5.166559 5.706559 8.483096 -0.820732 0.000001 -0.000001 0.000004 -5.175112 17.539922 3.177056 13.786800 -51.881055 55.343237 -21.791316 46.454832 20.845324 -1.945843 38.543324 10.924694 55.149539 18.649550 -29.698308 -0.442567 -14.180533 7.313149 21.666991 -29.244486 9.142363 -0.000001 -0.000000 -0.000000 5.673412 7.585038 36.844206 1.050454 3.824474 68.900189 0.499588 3.026025 62.196440 0.000000 -0.000000 -0.000000 -77.978945 24.817950 35.973455 38.191255 -22.377414 2.502561 11.741706 -2.748254 -8.292398 -0.918899 -6.110461 0.929442 -0.000000 0.000001 0.000000 -32.747728 -1.485409 -24.051545 48.607854 -1.008618 -6.227940 -27.624657 -14.413536 29.013428 0.528334 2.970028 1.471365 -0.000000 -0.000003 0.000000 
0.901560 73.089218 -0.593153 30.810591 -32.731151 19.661997 10.617223 -1.100592 0.070660 5.409010 -1.966937 0.558175 -6.497678 -2.054170 0.137541 -29.879106 -1.630765 7.753317 6.800597 14.872191 3.300267 0.000001 -0.000002 -0.000000 3.401313 -9.683231 10.462594 14.821946 -27.942937 -52.596674 -34.270392 -84.856324 -17.443106 -2.621555 -19.323664 1.208508 -1.571414 3.665659 -7.254844 0.106314 -0.422437 -9.476525 0.016356 -0.671353 -12.442823 0.000001 -0.000001 0.000001 -3.232169 4.117968 20.394883 -9.839098 8.587559 -4.239580 5.706561 8.483103 -0.820734 0.000001 -0.000002 0.000000 -5.266967 17.518209 3.525442 3.855631 -54.888292 51.215931 -19.010158 44.366665 19.319472 -3.097147 39.783506 6.985036 55.149539 18.649548 -29.698305 -0.442566 -14.180533 7.313150 21.666991 -29.244490 9.142363 0.000002 0.000001 0.000000 5.673413 7.585040 36.844202 1.050450 3.824481 68.900189 0.499592 3.026030 62.196440 -0.000004 -0.000000 0.000000 -80.212895 26.773896 30.555886 28.286851 -21.697385 1.725961 17.966893 -2.328564 -8.692362 -0.918899 -6.110462 0.929442 -0.000000 0.000001 0.000000 -39.317813 1.455840 -23.759404 46.242696 -2.995300 -6.213125 -23.471223 -16.198675 29.720762 0.528334 2.970030 1.471365 -0.000000 -0.000000 0.000000 
1.798487 74.607361 -1.423088 34.698082 -32.864432 22.681001 12.938689 -2.475960 0.008821 9.991767 -4.404614 0.368213 -1.891530 -4.378618 -0.514994 -53.807974 -8.068068 15.827203 13.241970 17.397537 0.080362 0.000000 -0.000003 0.000001 5.260287 -13.065091 12.072839 30.756233 -45.356264 -38.968060 4.212324 -101.254966 26.382082 -13.545716 -23.824163 -11.127647 -1.383648 5.387298 -8.536367 0.099135 -0.463202 -10.367325 0.007155 -0.711813 -13.333705 -0.000000 -0.000001 0.000001 -7.531513 5.523963 22.470665 -11.421547 8.006578 -3.591842 5.706567 8.483099 -0.820734 0.000001 0.000002 -0.000001 -5.847863 20.350926 4.883295 -9.099792 -52.901458 41.277155 -17.808748 42.114076 18.159129 -9.718633 40.905699 3.349500 55.149543 18.649551 -29.698305 -0.442569 -14.180534 7.313151 21.666991 -29.244490 9.142363 -0.000003 -0.000001 0.000000 5.673415 7.585040 36.844209 1.050451 3.824477 68.900189 0.499589 3.026030 62.196447 -0.000002 0.000000 0.000001 -77.859840 28.449888 28.092116 18.580404 -21.552669 0.755941 22.514042 -0.643446 -10.144657 -0.918899 -6.110461 0.929442 -0.000000 0.000001 -0.000000 -42.537780 2.797582 -23.461804 41.552023 -3.475866 -5.876890 -18.943045 -14.845020 29.253714 0.528334 2.970032 1.471365 -0.000000 0.000001 -0.000000 
2.074080 75.416428 -1.597870 38.776630 -35.107217 25.174515 14.136624 -3.235503 -0.255454 12.351573 -5.785478 0.056386 0.453010 -5.667086 -1.121620 -44.653875 -7.965887 14.502452 5.412400 15.507197 2.824746 -0.000000 -0.000000 -0.000000 6.483029 -12.136018 10.833912 49.212404 -55.784682 -18.073242 3.000340 -96.670290 28.551950 -21.985243 -22.219514 -18.728160 -1.281286 6.112054 -9.078936 0.095893 -0.480423 -10.743397 0.003076 -0.728880 -13.709761 -0.000003 -0.000002 0.000001 -9.369270 5.999400 23.394067 -12.088868 7.753526 -3.329329 5.706559 8.483094 -0.820733 -0.000003 0.000001 0.000002 -5.761445 22.171192 4.095166 -14.489037 -49.261076 37.077665 -15.591671 42.332754 16.368726 -15.960351 41.408244 2.316030 55.149546 18.649550 -29.698305 -0.442568 -14.180533 7.313150 21.666991 -29.244486 9.142364 0.000002 0.000002 -0.000001 5.673418 7.585038 36.844202 1.050451 3.824475 68.900189 0.499593 3.026027 62.196440 0.000001 0.000001 0.000000 -78.188099 27.083435 29.863278 16.124103 -18.300785 0.621737 22.973920 -0.788701 -11.022063 -0.918899 -6.110461 0.929442 0.000000 0.000001 0.000000 -45.336269 3.114885 -21.838372 37.330232 -2.986429 -5.459357 -15.610215 -12.403474 28.297061 0.528334 2.970030 1.471365 -0.000000 0.000004 -0.000000 
2.330317 75.543312 -1.396364 37.198730 -39.394731 23.052394 15.713388 -3.265905 -1.159888 15.471147 -5.961988 -1.513656 3.571556 -5.522910 -2.710829 -22.071036 -5.963964 13.407692 -2.061013 14.244500 3.982206 -0.000000 0.000004 -0.000002 5.792017 -9.285570 11.785469 47.491938 -47.944964 -12.840521 -16.653357 -93.183663 4.767158 -30.877233 -25.219750 -16.468375 -1.697960 0.864388 -5.178216 0.116510 -0.356061 -8.031856 0.023765 -0.636881 -11.683121 0.000001 -0.000001 -0.000000 3.519056 0.963218 17.480964 -7.270727 9.468343 -5.373416 5.706556 8.483097 -0.820734 0.000002 -0.000002 0.000002 -5.297300 22.826555 2.439546 -18.479449 -42.845503 36.483715 -13.178204 33.178979 11.599076 -22.389456 45.449271 5.558724 55.149543 18.649550 -29.698308 -0.442569 -14.180534 7.313151 21.666991 -29.244490 9.142363 0.000000 0.000001 -0.000000 5.673413 7.585037 36.844202 1.050453 3.824477 68.900196 0.499589 3.026022 62.196447 0.000000 -0.000000 -0.000000 -78.685378 24.457821 34.383292 22.262354 -19.061369 1.249990 19.428845 1.065921 -11.326453 -0.918899 -6.110461 0.929442 -0.000000 -0.000001 -0.000000 -43.474144 1.051204 -19.922904 35.373485 -1.560022 -5.149193 -14.558613 -9.586091 27.460677 0.528334 2.970024 1.471365 -0.000000 0.000002 -0.000000 
